# xmcd CD database file
#
# Track frame offsets:
#	150
#	16915
#	29927
#	52820
#	70390
#	94862
#	116545
#	133902
#	150590
#	161420
#	182805
#	198640
#	210387
#	229615
#	247175
#	265552
#	283187
#	296577
#	314492
#	328670
#
# Disc length: 4553 seconds
#
# Revision: 0
# Processed by: cddbd v1.5PL3 Copyright (c) Steve Scherf et al.
# Submitted via: CDex 1.50
#
DISCID=2c11c714
DTITLE=Elb Meadow Ramblers Dresden - 40 Jahre Elb Meadow Ramblers Dresden
DYEAR=1995
DGENRE=Jazz
TTITLE0=When The Saints Go Marchin' In
TTITLE1=Tiger Rag
TTITLE2=Beale Street Blues
TTITLE3=Tishomingo Blues
TTITLE4=Original Dixieland One-Step
TTITLE5=Glory Hallelujah
TTITLE6=Some Of These Days
TTITLE7=I've Found A New Baby
TTITLE8=Savoy Blues
TTITLE9=It's A Long Way To Tipperary
TTITLE10=Weird Blues
TTITLE11=Nisse's Blues
TTITLE12=St. Louis Blues
TTITLE13=Oh Baby
TTITLE14=Keepin' Out Of Mischief Now
TTITLE15=Limehouse Blues
TTITLE16=Exactly Like You
TTITLE17=New Orleans
TTITLE18=Swingin' The Blues
TTITLE19=Indiana
EXTD=YEAR: 1995
EXTT0=
EXTT1=
EXTT2=
EXTT3=
EXTT4=
EXTT5=
EXTT6=
EXTT7=
EXTT8=
EXTT9=
EXTT10=
EXTT11=
EXTT12=
EXTT13=
EXTT14=
EXTT15=
EXTT16=
EXTT17=
EXTT18=
EXTT19=
PLAYORDER=
